<?xml version="1.0" encoding="UTF-8"?>
<!DOCTYPE svg PUBLIC "-//W3C//DTD SVG 1.1//EN" "http://www.w3.org/Graphics/SVG/1.1/DTD/svg11.dtd">
<!-- Creator: CorelDRAW 2021.5 -->
<svg xmlns="http://www.w3.org/2000/svg" xml:space="preserve" width="44.162mm" height="25.1972mm" version="1.1" style="shape-rendering:geometricPrecision; text-rendering:geometricPrecision; image-rendering:optimizeQuality; fill-rule:evenodd; clip-rule:evenodd"
viewBox="0 0 3880.59 2214.12"
 xmlns:xlink="http://www.w3.org/1999/xlink"
 xmlns:xodm="http://www.corel.com/coreldraw/odm/2003">
 <defs>
  <style type="text/css">
   <![CDATA[
    .fil0 {fill:#FEFEFE;fill-rule:nonzero}
   ]]>
  </style>
 </defs>
 <g id="Слой_x0020_1">
  <metadata id="CorelCorpID_0Corel-Layer"/>
  <path class="fil0" d="M3860.09 1999.52c-4.71,-10.16 -9.08,-18.51 -13.17,-25.3 -67.33,-121.19 -196.07,-270.03 -385.94,-446.45l-3.96 -4.11 -2.08 -1.96 -2.04 -2.05 -1.96 0c-86.2,-82.21 -140.82,-137.45 -163.7,-165.66 -41.78,-53.87 -51.21,-108.5 -28.33,-163.71 16.21,-41.77 76.75,-129.91 181.86,-264.68 55.21,-71.33 99.04,-128.63 131.25,-171.71 233.11,-309.87 334.11,-507.86 303.1,-594.07l-11.99 -20.12c-8.12,-12.08 -28.92,-23.25 -62.58,-33.29 -33.67,-10.17 -76.79,-11.86 -129.33,-5.09l-581.97 4c-9.32,-3.24 -22.87,-3.02 -40.32,1.09 -17.55,4 -26.39,6.05 -26.39,6.05l-10.03 5.11 -8.01 6.05c-6.78,4 -14.17,11.01 -22.28,21.17 -8.01,10.08 -14.75,21.92 -20.09,35.37 -63.46,163 -135.38,314.48 -216.28,454.58 -49.88,83.54 -95.67,155.95 -137.42,217.25 -41.79,61.25 -76.78,106.45 -105,135.37 -28.33,28.95 -53.87,52.2 -76.78,69.63 -23,17.57 -40.42,24.96 -52.55,22.29 -12.12,-2.79 -23.62,-5.47 -34.38,-8.13 -18.9,-12.09 -34.04,-28.58 -45.41,-49.52 -11.5,-20.83 -19.25,-47.11 -23.25,-78.83 -4.01,-31.62 -6.41,-58.86 -7.16,-81.73 -0.59,-22.89 -0.25,-55.34 1.09,-97.01 1.33,-41.77 2.06,-70.11 2.06,-84.88 0,-51.24 0.98,-106.83 2.93,-166.74 2.04,-59.95 3.74,-107.41 5.08,-142.41 1.34,-35 2.05,-72.04 2.05,-111.16 0,-39 -2.43,-69.63 -7.13,-91.91 -4.62,-22.17 -11.75,-43.71 -21.2,-64.66 -9.46,-20.84 -23.25,-37.06 -41.42,-48.43 -18.15,-11.5 -40.67,-20.59 -67.57,-27.38 -71.42,-16.12 -162.37,-24.82 -272.8,-26.29l-25.13 -0.2 -52.05 0c-206.69,1.22 -341.93,17.52 -405.76,48.79 -28.33,14.76 -53.87,34.99 -76.76,60.54 -24.21,29.67 -27.62,45.87 -10.16,48.55 80.88,12.12 138.03,41.07 171.82,86.82l12.09 24.34c9.45,17.45 18.91,48.45 28.23,92.88 9.44,44.45 15.5,93.61 18.14,147.48 6.79,98.33 6.79,182.5 0,252.6 -6.63,69.97 -13.05,124.59 -19.13,163.6 -6.05,39.11 -15.12,70.7 -27.24,95.04 -12.09,24.23 -20.21,38.99 -24.33,44.45 -4.01,5.33 -7.39,8.7 -10.05,10.03 -17.54,6.79 -35.71,10.18 -54.62,10.18 -18.74,0 -41.66,-9.44 -68.66,-28.34 -26.88,-18.87 -54.84,-44.79 -83.79,-77.87 -28.91,-32.93 -61.62,-79.05 -98.08,-138.38 -36.33,-59.24 -73.95,-129.21 -113.06,-210.11l-32.35 -58.59c-20.23,-37.66 -47.83,-92.53 -82.82,-164.7 -35,-72.04 -66,-141.66 -92.88,-209.13 -10.77,-28.2 -26.99,-49.75 -48.57,-64.66l-10.05 -6.05c-6.78,-5.33 -17.55,-11.05 -32.33,-17.21 -14.87,-6.05 -30.25,-10.41 -46.5,-13.08l-553.62 3.99c-56.54,0 -94.95,12.84 -115.16,38.37l-8.12 12.13c-3.94,6.69 -5.98,17.21 -6.05,31.63l0 0.69 0 0.7c0.12,14.79 4.12,32.68 12.12,53.93 80.88,189.86 168.67,373.08 263.71,549.5 94.95,176.56 177.41,318.59 247.4,426.34 70.12,107.78 141.42,209.49 214.21,305.03 72.78,95.67 120.96,156.95 144.44,183.95 23.63,27 42.17,47.09 55.6,60.54l50.49 48.54c32.34,32.34 79.79,71.09 142.53,116.13 62.58,45.17 131.99,89.62 208.04,133.44 76.17,43.72 164.67,79.43 265.78,107.05 101,27.62 199.33,38.75 294.99,33.29l232.37 0c47.1,-4.01 82.83,-18.87 107.05,-44.43l8 -10.03c5.42,-8.13 10.51,-20.62 15.12,-37.45 4.72,-16.8 7.13,-35.33 7.13,-55.54 -1.33,-57.91 3.04,-110.09 13.09,-156.59 10.03,-46.38 21.55,-81.37 34.4,-105 12.84,-23.61 27.22,-43.45 43.46,-59.58 16.09,-16.21 27.62,-25.91 34.38,-29.29 6.67,-3.42 12,-5.7 16.12,-7.17 32.35,-10.76 70.34,-0.2 114.18,31.38 43.73,31.75 84.79,70.71 123.28,117.21 38.37,46.5 84.53,98.7 138.28,156.57 54.01,57.88 101.12,101 141.42,129.32l40.46 24.23c27,16.24 62,30.99 105.12,44.45 43.08,13.55 80.75,16.96 113.08,10.18l517.3 -8.13c51.09,0 90.92,-8.46 119.13,-25.3 28.34,-16.83 45.08,-35.37 50.5,-55.46 5.46,-20.25 5.7,-43.12 1.09,-68.79 -4.84,-25.54 -9.55,-43.45 -14.17,-53.53z"/>
 </g>
</svg>
