<?xml version="1.0" encoding="UTF-8"?>
<!DOCTYPE svg PUBLIC "-//W3C//DTD SVG 1.1//EN" "http://www.w3.org/Graphics/SVG/1.1/DTD/svg11.dtd">
<!-- Creator: CorelDRAW 2021.5 -->
<svg xmlns="http://www.w3.org/2000/svg" xml:space="preserve" width="27.4492mm" height="11.2779mm" version="1.1" style="shape-rendering:geometricPrecision; text-rendering:geometricPrecision; image-rendering:optimizeQuality; fill-rule:evenodd; clip-rule:evenodd"
viewBox="0 0 526.57 216.35"
 xmlns:xlink="http://www.w3.org/1999/xlink"
 xmlns:xodm="http://www.corel.com/coreldraw/odm/2003">
 <defs>
  <style type="text/css">
   <![CDATA[
    .fil1 {fill:#FEFEFE}
    .fil0 {fill:#FEFEFE;fill-rule:nonzero}
   ]]>
  </style>
 </defs>
 <g id="Слой_x0020_1">
  <metadata id="CorelCorpID_0Corel-Layer"/>
  <path class="fil0" d="M55.97 53.58l16.13 4.96c-2.48,9.08 -6.6,15.82 -12.37,20.24 -5.76,4.4 -13.06,6.61 -21.91,6.61 -10.97,0 -19.97,-3.74 -27.04,-11.23 -7.05,-7.49 -10.58,-17.73 -10.58,-30.73 0,-13.73 3.55,-24.41 10.64,-32.01 7.09,-7.6 16.42,-11.41 27.98,-11.41 10.1,0 18.3,3 24.6,8.97 3.76,3.53 6.57,8.6 8.45,15.23l-16.48 3.92c-0.98,-4.26 -3.02,-7.64 -6.11,-10.12 -3.11,-2.48 -6.88,-3.71 -11.29,-3.71 -6.13,0 -11.1,2.19 -14.9,6.59 -3.82,4.38 -5.72,11.49 -5.72,21.32 0,10.41 1.88,17.84 5.63,22.26 3.76,4.44 8.64,6.65 14.65,6.65 4.44,0 8.26,-1.4 11.45,-4.22 3.19,-2.82 5.49,-7.24 6.87,-13.29zm30.44 30.42l0 -82.5 61.07 0 0 13.94 -44.36 0 0 18.32 41.25 0 0 13.94 -41.25 0 0 22.35 45.97 0 0 13.94 -62.68 0zm76.85 0l0 -82.5 35.08 0c8.81,0 15.23,0.75 19.22,2.23 4.01,1.48 7.2,4.11 9.6,7.89 2.4,3.8 3.61,8.12 3.61,13 0,6.2 -1.81,11.31 -5.43,15.34 -3.63,4.03 -9.04,6.57 -16.27,7.62 3.59,2.09 6.55,4.4 8.87,6.91 2.34,2.51 5.49,6.99 9.45,13.4l10.06 16.09 -19.91 0 -11.94 -18.01c-4.28,-6.39 -7.22,-10.43 -8.81,-12.1 -1.57,-1.65 -3.25,-2.8 -5.01,-3.42 -1.79,-0.62 -4.59,-0.92 -8.43,-0.92l-3.38 0 0 34.45 -16.71 0zm16.71 -47.59l12.33 0c7.99,0 12.96,-0.35 14.96,-1.02 1.98,-0.67 3.55,-1.84 4.67,-3.49 1.13,-1.65 1.69,-3.73 1.69,-6.2 0,-2.78 -0.75,-5.01 -2.23,-6.74 -1.48,-1.71 -3.57,-2.78 -6.26,-3.22 -1.36,-0.19 -5.41,-0.29 -12.15,-0.29l-13 0 0 20.97zm140.82 47.59l-17.99 0 -7.12 -18.78 -33.09 0 -6.85 18.78 -17.67 0 32.03 -82.5 17.65 0 33.05 82.5zm-30.53 -32.72l-11.47 -30.53 -11.14 30.53 22.6 0zm39.19 32.72l0 -82.5 25.02 0 14.79 56.27 14.61 -56.27 25.08 0 0 82.5 -15.44 0 -0.06 -64.95 -16.26 64.95 -16.05 0 -16.19 -64.95 -0.06 64.95 -15.44 0zm95.63 0l0 -82.5 16.71 0 0 82.5 -16.71 0zm85.36 -30.42l16.13 4.96c-2.48,9.08 -6.6,15.82 -12.37,20.24 -5.76,4.4 -13.06,6.61 -21.91,6.61 -10.97,0 -19.97,-3.74 -27.04,-11.23 -7.05,-7.49 -10.58,-17.73 -10.58,-30.73 0,-13.73 3.55,-24.41 10.64,-32.01 7.09,-7.6 16.42,-11.41 27.98,-11.41 10.1,0 18.3,3 24.6,8.97 3.76,3.53 6.57,8.6 8.45,15.23l-16.48 3.92c-0.98,-4.26 -3.02,-7.64 -6.11,-10.12 -3.11,-2.48 -6.88,-3.71 -11.29,-3.71 -6.13,0 -11.1,2.19 -14.9,6.59 -3.82,4.38 -5.72,11.49 -5.72,21.32 0,10.41 1.88,17.84 5.63,22.26 3.76,4.44 8.64,6.65 14.65,6.65 4.44,0 8.26,-1.4 11.45,-4.22 3.19,-2.82 5.49,-7.24 6.87,-13.29z"/>
  <path class="fil0" d="M234.3 174.1c0,-8.41 1.27,-15.48 3.78,-21.2 1.86,-4.2 4.44,-7.99 7.68,-11.33 3.25,-3.34 6.8,-5.82 10.66,-7.45 5.15,-2.17 11.08,-3.27 17.8,-3.27 12.17,0 21.89,3.78 29.21,11.33 7.3,7.57 10.94,18.07 10.94,31.53 0,13.35 -3.63,23.79 -10.87,31.32 -7.24,7.55 -16.94,11.31 -29.06,11.31 -12.27,0 -22.05,-3.74 -29.29,-11.25 -7.24,-7.49 -10.87,-17.82 -10.87,-30.99zm17.17 -0.56c0,9.35 2.17,16.44 6.49,21.28 4.32,4.82 9.81,7.24 16.46,7.24 6.66,0 12.12,-2.4 16.4,-7.18 4.26,-4.8 6.39,-11.98 6.39,-21.57 0,-9.47 -2.07,-16.53 -6.24,-21.18 -4.15,-4.67 -9.66,-6.99 -16.55,-6.99 -6.88,0 -12.43,2.36 -16.63,7.07 -4.21,4.72 -6.32,11.83 -6.32,21.33zm76.14 41.31l0 -82.5 16.71 0 0 36.54 33.66 -36.54 22.39 0 -31.13 32.13 32.74 50.37 -21.54 0 -22.7 -38.73 -13.42 13.79 0 24.95 -16.71 0z"/>
  <path class="fil1" d="M122.1 214.27l-50.25 -105.48 -71.85 0.08 0 -15.06 83.38 -0.11 36.35 74.84c3.55,7.36 6.86,15.01 9.87,22.95 2.32,-6 5.53,-13.22 9.72,-21.67l39.07 -77.1 347.86 -0.14 0 15.06 -337.61 0.13 -53.14 106.5 -13.41 0z"/>
 </g>
</svg>
